<svg width="112" height="111" viewBox="0 0 112 111" fill="none" xmlns="http://www.w3.org/2000/svg">
<g filter="url(#filter0_d_153_2)">
<path d="M56 79.625C75.0538 79.625 90.5 64.3467 90.5 45.5C90.5 26.6533 75.0538 11.375 56 11.375C36.9462 11.375 21.5 26.6533 21.5 45.5C21.5 64.3467 36.9462 79.625 56 79.625Z" fill="white"/>
<path d="M56 79.625C75.0538 79.625 90.5 64.3467 90.5 45.5C90.5 26.6533 75.0538 11.375 56 11.375C36.9462 11.375 21.5 26.6533 21.5 45.5C21.5 64.3467 36.9462 79.625 56 79.625Z" stroke="white" stroke-width="2" stroke-miterlimit="10"/>
</g>
<path d="M53.8078 57.5502L41.625 45.4999L53.8078 33.4495" stroke="black" stroke-width="2" stroke-linecap="round" stroke-linejoin="round"/>
<path d="M41.625 45.5H70.375" stroke="black" stroke-width="2" stroke-linecap="round" stroke-linejoin="round"/>
<defs>
<filter id="filter0_d_153_2" x="0.5" y="0.375" width="111" height="110.25" filterUnits="userSpaceOnUse" color-interpolation-filters="sRGB">
<feFlood flood-opacity="0" result="BackgroundImageFix"/>
<feColorMatrix in="SourceAlpha" type="matrix" values="0 0 0 0 0 0 0 0 0 0 0 0 0 0 0 0 0 0 127 0" result="hardAlpha"/>
<feOffset dy="10"/>
<feGaussianBlur stdDeviation="10"/>
<feComposite in2="hardAlpha" operator="out"/>
<feColorMatrix type="matrix" values="0 0 0 0 0 0 0 0 0 0 0 0 0 0 0 0 0 0 0.25 0"/>
<feBlend mode="normal" in2="BackgroundImageFix" result="effect1_dropShadow_153_2"/>
<feBlend mode="normal" in="SourceGraphic" in2="effect1_dropShadow_153_2" result="shape"/>
</filter>
</defs>
</svg>
