<svg width="33" height="35" viewBox="0 0 33 35" fill="none" xmlns="http://www.w3.org/2000/svg">
<path d="M21.8931 6.46753H24.5134C25.2083 6.46753 25.8748 6.76581 26.3662 7.29676C26.8576 7.82771 27.1337 8.54783 27.1337 9.2987V29.1169C27.1337 29.8678 26.8576 30.5879 26.3662 31.1188C25.8748 31.6498 25.2083 31.948 24.5134 31.948H8.79146C8.09651 31.948 7.43002 31.6498 6.93862 31.1188C6.44721 30.5879 6.17114 29.8678 6.17114 29.1169V9.2987C6.17114 8.54783 6.44721 7.82771 6.93862 7.29676C7.43002 6.76581 8.09651 6.46753 8.79146 6.46753H11.4118" stroke="black" stroke-width="2" stroke-linecap="round" stroke-linejoin="round"/>
<path d="M20.5829 3.63623H12.7219C11.9983 3.63623 11.4117 4.27001 11.4117 5.05181V7.88298C11.4117 8.66479 11.9983 9.29857 12.7219 9.29857H20.5829C21.3064 9.29857 21.893 8.66479 21.893 7.88298V5.05181C21.893 4.27001 21.3064 3.63623 20.5829 3.63623Z" stroke="black" stroke-width="2" stroke-linecap="round" stroke-linejoin="round"/>
</svg>
