<svg width="32" height="35" viewBox="0 0 32 35" fill="none" xmlns="http://www.w3.org/2000/svg">
<path d="M15.7219 18.5716C16.4455 18.5716 17.0321 17.9379 17.0321 17.1561C17.0321 16.3743 16.4455 15.7405 15.7219 15.7405C14.9983 15.7405 14.4117 16.3743 14.4117 17.1561C14.4117 17.9379 14.9983 18.5716 15.7219 18.5716Z" stroke="black" stroke-width="2" stroke-linecap="round" stroke-linejoin="round"/>
<path d="M15.7219 8.66247C16.4455 8.66247 17.0321 8.02869 17.0321 7.24688C17.0321 6.46508 16.4455 5.8313 15.7219 5.8313C14.9983 5.8313 14.4117 6.46508 14.4117 7.24688C14.4117 8.02869 14.9983 8.66247 15.7219 8.66247Z" stroke="black" stroke-width="2" stroke-linecap="round" stroke-linejoin="round"/>
<path d="M15.7219 28.4806C16.4455 28.4806 17.0321 27.8468 17.0321 27.065C17.0321 26.2832 16.4455 25.6494 15.7219 25.6494C14.9983 25.6494 14.4117 26.2832 14.4117 27.065C14.4117 27.8468 14.9983 28.4806 15.7219 28.4806Z" stroke="black" stroke-width="2" stroke-linecap="round" stroke-linejoin="round"/>
</svg>
