<svg width="32" height="35" viewBox="0 0 32 35" fill="none" xmlns="http://www.w3.org/2000/svg">
<path d="M18.669 28.5122V22.1419C18.669 21.8603 18.5655 21.5903 18.3812 21.3912C18.197 21.1921 17.947 21.0802 17.6864 21.0802H13.7559C13.4953 21.0802 13.2454 21.1921 13.0611 21.3912C12.8769 21.5903 12.7733 21.8603 12.7733 22.1419V28.5122C12.7733 28.7937 12.6698 29.0637 12.4856 29.2628C12.3013 29.4619 12.0514 29.5738 11.7908 29.5738L5.89583 29.5747C5.76678 29.5747 5.63899 29.5472 5.51976 29.4939C5.40053 29.4406 5.29219 29.3624 5.20093 29.2638C5.10967 29.1652 5.03728 29.0481 4.9879 28.9193C4.93851 28.7905 4.91309 28.6524 4.91309 28.513V16.2425C4.91309 16.0946 4.94169 15.9483 4.99707 15.813C5.05245 15.6777 5.13337 15.5565 5.23466 15.4569L15.0602 5.80424C15.2411 5.62655 15.4767 5.52809 15.7212 5.52808C15.9657 5.52807 16.2013 5.62652 16.3822 5.80419L26.2091 15.4569C26.3104 15.5565 26.3913 15.6777 26.4467 15.813C26.5021 15.9483 26.5307 16.0946 26.5307 16.2425V28.513C26.5307 28.6524 26.5053 28.7905 26.4559 28.9193C26.4065 29.0481 26.3341 29.1652 26.2429 29.2638C26.1516 29.3624 26.0433 29.4406 25.9241 29.4939C25.8048 29.5473 25.677 29.5747 25.548 29.5747L19.6515 29.5738C19.391 29.5738 19.1411 29.4619 18.9568 29.2628C18.7726 29.0637 18.669 28.7937 18.669 28.5122V28.5122Z" stroke="#222222" stroke-width="2" stroke-linecap="round" stroke-linejoin="round"/>
</svg>
